<svg xmlns="http://www.w3.org/2000/svg" version="1.1" xmlns:xlink="http://www.w3.org/1999/xlink" xmlns:svgjs="http://svgjs.dev/svgjs" width="1000" height="623" viewBox="0 0 1000 623"><g transform="matrix(1,0,0,1,-0.6060606060606233,0.2522267206477409)"><svg viewBox="0 0 396 247" data-background-color="#010203" preserveAspectRatio="xMidYMid meet" height="623" width="1000" xmlns="http://www.w3.org/2000/svg" xmlns:xlink="http://www.w3.org/1999/xlink"><g id="tight-bounds" transform="matrix(1,0,0,1,0.2400000000000091,-0.09999999999999432)"><svg viewBox="0 0 395.52 247.2" height="247.2" width="395.52"><g><svg></svg></g><g><svg viewBox="0 0 395.52 247.2" height="247.2" width="395.52"><g transform="matrix(1,0,0,1,75.54432,94.50815852417207)"><svg viewBox="0 0 244.43135999999998 58.18368295165585" height="58.18368295165585" width="244.43135999999998"><g><svg viewBox="0 0 369.74817036255286 88.01370788236669" height="58.18368295165585" width="244.43135999999998"><g transform="matrix(1,0,0,1,0,12.163978441050688)"><svg viewBox="0 0 244.43135999999998 63.68575100026531" height="63.68575100026531" width="244.43135999999998"><g id="textblocktransform"><svg viewBox="0 0 244.43135999999998 63.68575100026531" height="63.68575100026531" width="244.43135999999998" id="textblock"><g><svg viewBox="0 0 244.43135999999998 63.68575100026531" height="63.68575100026531" width="244.43135999999998"><g transform="matrix(1,0,0,1,0,0)"><svg width="244.43135999999998" viewBox="5 -38.95000076293945 191.72999572753906 49.099998474121094" height="63.68575100026531" data-palette-color="#fffff0"><path d="M5 0L5-36.4 10.85-36.4 10.85 0 5 0ZM19.7-21.15L24.75-21.15 25.2-16.6 25.05-17.2Q26.1-19.4 28.3-20.73 30.5-22.05 33.5-22.05L33.5-22.05Q36.5-22.05 38.45-20.3 40.4-18.55 40.45-15.7L40.45-15.7 40.45 0 34.85 0 34.85-13.7Q34.8-15.3 33.95-16.28 33.1-17.25 31.25-17.3L31.25-17.3Q29.55-17.3 28.2-16.28 26.85-15.25 26.07-13.48 25.3-11.7 25.3-9.4L25.3-9.4 25.3 0 19.7 0 19.7-21.15ZM55.6 0L50 0 50-16.25 46.4-16.25 46.4-21.2 50-21.2 50-29.5Q50-33.9 52.22-36.43 54.45-38.95 58.7-38.95L58.7-38.95Q59.9-38.95 61.35-38.6 62.8-38.25 63.9-37.5L63.9-37.5 61.55-33.45Q61.05-33.95 60.45-34.15 59.85-34.35 59.3-34.35L59.3-34.35Q57.6-34.35 56.6-33.2 55.6-32.05 55.6-29.35L55.6-29.35 55.6-21.2 62.2-21.2 62.2-16.25 55.6-16.25 55.6 0ZM68.24 0L68.24-21.15 73.84-21.15 73.84 0 68.24 0ZM67.99-28.75L67.99-28.75Q67.99-30.05 69.02-30.9 70.04-31.75 71.24-31.75L71.24-31.75Q72.44-31.75 73.39-30.9 74.34-30.05 74.34-28.75L74.34-28.75Q74.34-27.45 73.39-26.63 72.44-25.8 71.24-25.8L71.24-25.8Q70.04-25.8 69.02-26.65 67.99-27.5 67.99-28.75ZM81.54-21.15L86.59-21.15 87.04-16.6 86.89-17.2Q87.94-19.4 90.14-20.73 92.34-22.05 95.34-22.05L95.34-22.05Q98.34-22.05 100.29-20.3 102.24-18.55 102.29-15.7L102.29-15.7 102.29 0 96.69 0 96.69-13.7Q96.64-15.3 95.79-16.28 94.94-17.25 93.09-17.3L93.09-17.3Q91.39-17.3 90.04-16.28 88.69-15.25 87.92-13.48 87.14-11.7 87.14-9.4L87.14-9.4 87.14 0 81.54 0 81.54-21.15ZM109.99 0L109.99-21.15 115.59-21.15 115.59 0 109.99 0ZM109.74-28.75L109.74-28.75Q109.74-30.05 110.76-30.9 111.79-31.75 112.99-31.75L112.99-31.75Q114.19-31.75 115.14-30.9 116.09-30.05 116.09-28.75L116.09-28.75Q116.09-27.45 115.14-26.63 114.19-25.8 112.99-25.8L112.99-25.8Q111.79-25.8 110.76-26.65 109.74-27.5 109.74-28.75ZM125.34-21.15L125.34-30.45 130.94-30.45 130.94-21.15 136.44-21.15 136.44-16.75 130.94-16.75 130.94 0 125.34 0 125.34-16.75 121.69-16.75 121.69-21.15 125.34-21.15ZM149.18 10.15L143.68 10.15 157.73-21.15 162.83-21.15 149.18 10.15ZM153.43-2.7L149.13 0.15 138.83-21.15 145.13-21.15 153.43-2.7ZM189.23 0L165.58-36.4 172.98-36.4 196.73 0 189.23 0ZM172.28 0L165.08 0 177.88-20.05 180.63-14.3 172.28 0ZM183.98-17.2L180.93-22.15 189.23-36.4 196.28-36.4 183.98-17.2Z" opacity="1" transform="matrix(1,0,0,1,0,0)" fill="#fffff0" class="undefined-text-0" data-fill-palette-color="primary" id="text-0"></path></svg></g></svg></g></svg></g></svg></g><g transform="matrix(1,0,0,1,259.46603735313863,0)"><svg viewBox="0 0 110.28213300941427 88.01370788236669" height="88.01370788236669" width="110.28213300941427"><g><svg xmlns="http://www.w3.org/2000/svg" xmlns:xlink="http://www.w3.org/1999/xlink" version="1.1" x="0" y="0" viewBox="4.984000205993652 14.078006744384766 90.02256774902344 71.84500122070312" enable-background="new 0 0 100 100" xml:space="preserve" height="88.01370788236669" width="110.28213300941427" class="icon-icon-0" data-fill-palette-color="accent" id="icon-0"><path d="M26.331 64.023L4.984 59.947l5.172-5.171 13.908-0.757c3.224-3.224 24.236-24.236 27.228-27.228 4.86-4.859 5.405-1.881 7.803-3.453 4.759-3.117 6.855-2.698 7.638-1.917 1.666 1.666 1.03 5.061-8.879 14.971C54.026 40.219 31.716 62.53 31.716 62.53c-1.284 1.284-3.023 1.805-4.698 1.61l-0.01 0.013-0.144-0.028C26.684 64.102 26.509 64.067 26.331 64.023zM15.013 66.832l4.321 4.32 1.406-1.409c1.194-1.193 1.194-3.128 0.003-4.32-1.195-1.192-3.129-1.192-4.321 0L15.013 66.832zM76.582 23.013L37.458 62.137c-1.662 1.663-2.263 3.98-1.816 6.123l-5.745 5.744c-1.507-0.079-3.037 0.437-4.189 1.586l-2.538 2.541 7.791 7.792 2.541-2.54c1.149-1.15 1.665-2.682 1.585-4.188l5.746-5.746c2.142 0.447 4.458-0.152 6.121-1.816l39.125-39.124c7.027-7.027 9.946-16.781 8.614-18.11C93.363 13.069 83.735 15.859 76.582 23.013z" fill="#fffff0" data-fill-palette-color="accent"></path></svg></g></svg></g></svg></g></svg></g><g><path d="M245.816 0c68.262 0 123.6 55.338 123.6 123.6 0 68.262-55.338 123.6-123.6 123.6-56.448 0-104.058-37.841-118.848-89.539l1.977 0c14.732 50.636 61.48 87.64 116.871 87.641 67.214 0 121.702-54.488 121.701-121.702 0-67.214-54.488-121.702-121.701-121.702-55.391 0-102.138 37.004-116.871 87.641h-1.977c14.789-51.698 62.399-89.539 118.848-89.539z" fill="#fffff0" stroke="transparent" data-fill-palette-color="tertiary"></path></g></svg></g><defs></defs></svg><rect width="395.52" height="247.2" fill="none" stroke="none" visibility="hidden"></rect></g></svg></g></svg>